<svg xmlns="http://www.w3.org/2000/svg" width="1200" height="1200" viewBox="0 0 1200 1200">
  <defs>
    <linearGradient id="bg2" x1="0" y1="0" x2="0" y2="1">
      <stop offset="0%" stop-color="#1E293B"/>
      <stop offset="100%" stop-color="#0F172A"/>
    </linearGradient>
    <linearGradient id="gold" x1="0" y1="0" x2="1" y2="1">
      <stop offset="0%" stop-color="#FFE082"/>
      <stop offset="100%" stop-color="#FFB300"/>
    </linearGradient>
  </defs>

  <rect width="1200" height="1200" rx="140" fill="url(#bg2)"/>

  <g fill="none" stroke="url(#gold)" stroke-width="24" stroke-linecap="round" stroke-linejoin="round">
    <path d="M350 380 L470 580 L430 780 L360 780 L390 580 Z"/>
    <path d="M850 380 L730 580 L770 780 L840 780 L810 580 Z"/>
    <path d="M360 780 H840"/>
  </g>

  <g fill="#FFD54F" opacity="0.95">
    <circle cx="445" cy="535" r="10"/>
    <circle cx="420" cy="505" r="8"/>
    <circle cx="760" cy="530" r="10"/>
    <circle cx="790" cy="505" r="8"/>
  </g>

  <g fill="#FF7043">
    <circle cx="560" cy="620" r="18"/>
    <circle cx="600" cy="640" r="12"/>
    <circle cx="640" cy="615" r="15"/>
  </g>

  <text x="600" y="925" text-anchor="middle" font-family="'Baloo 2', 'Poppins', sans-serif" font-size="112" font-weight="700" fill="#FFE082">Oye Chakhna!</text>
  <text x="600" y="995" text-anchor="middle" font-family="'Poppins', sans-serif" font-size="42" letter-spacing="6" fill="#E2E8F0">CHAKHNA WITH CHEERS</text>
</svg>
